<svg xmlns="http://www.w3.org/2000/svg" xmlns:xlink="http://www.w3.org/1999/xlink" width="171" height="152" viewBox="0 0 171 152"><defs><path id="a" d="M0 .2h163.755v143.782H0z"/></defs><g fill="none" fill-rule="evenodd" transform="translate(4 2)"><path fill="#926A3A" d="M61.633 15.061c-.256-.216-.256-1.484 0-1.7v1.7m3.398-1.082v2.474c-.256-.47-.256-2.004 0-2.474M84.65 16.3c-.098.52.199 1.435-.154 1.7.097-.52-.2-1.436.154-1.7"/><path fill="#1B1A19" d="M83.877 21.4c-1.615-.239-2.627-1.082-2.472-3.092 1.286.568 2.791.917 2.472 3.092"/><path fill="#926A3A" d="M84.495 19.7c-.1.622.2 1.644-.155 2.01.099-.623-.2-1.645.155-2.01m-7.724 3.865c.256.166.256 1.379 0 1.546v-1.546m-38.463.618c.167-.256 1.378-.256 1.545 0h-1.545"/><path fill="#B6B5B1" d="M55.3 26.811c.256.217.256 1.484 0 1.7v-1.7"/><path fill="#926A3A" d="M102.104 36.86c.214-.352 1.075-.057 1.545-.154-.215.353-1.076.058-1.545.154m-29.04 2.01c.256.368.256 1.797 0 2.165V38.87M5.406 44.59c.47.097 1.33-.197 1.545.155-.47-.097-1.33.198-1.545-.155m15.91.155c.265-.354 1.18-.057 1.7-.155-.264.355-1.18.057-1.7.155m-13.901 0c.723.1 1.85-.202 2.317.155-.724-.1-1.85.202-2.317-.155m11.276.155c.416-.357 1.49-.055 2.162-.155-.416.356-1.49.055-2.162.155m-8.187 0h7.414c-2.112.257-5.302.257-7.414 0m-6.951.31c-.099.57.2 1.54-.155 1.854.099-.57-.2-1.54.155-1.855m63.795 2.32h2.163c-.367.256-1.795.256-2.163 0m-63.95.154c-.102 1.444.205 3.297-.154 4.483.102-1.444-.205-3.297.154-4.483"/><path fill="#851E30" d="M40.162 69.482c.138 5.289-8.222 7.688-12.049 4.483-4.106-3.439-2.628-16.022-4.325-21.954 1.35-.298 2.975-.32 4.325-.618.457 3.625.875 7.11 1.39 11.132.401 3.128.049 8.94 3.244 9.276 4.84.507 2.622-7.041 2.163-10.977-.45-3.858-.71-7.034-1.236-9.895 1.105-.595 3.054-.344 4.325-.773.872 5.518 1.44 11.341 2.163 17.007v2.319M8.187 59.587c-.997-9.251 14.876-9.584 14.057-.31-1.408.19-2.768.426-4.326.465-.229-1.626-.69-3.02-1.853-3.71-2.466-.304-3.392.933-3.399 3.091-.256.267-.256 1.589 0 1.855.577 4.387.088 16.027 6.797 11.905-.21-1.749-.456-3.46-.618-5.257-.536-.214-1.593.214-2.471.155-.157-1.131-.153-2.424-.464-3.401 2.017-.558 4.437-.713 6.797-.928.59 3.944.964 8.105 1.545 12.059-3.796 1.01-9.735 2.944-12.667.155-3.153-3-2.518-8.977-3.398-14.379v-1.7"/><path fill="#926A3A" d="M3.244 53.094c.36 1.238.052 3.143.154 4.638-.359-1.238-.052-3.143-.154-4.638m75.844 4.02h1.7c-.217.255-1.484.255-1.7 0M3.398 58.35c.356.366.056 1.388.155 2.01-.356-.366-.056-1.388-.155-2.01m9.268.773v1.855c-.256-.266-.256-1.588 0-1.855m-4.48.464v1.7c-.255-.216-.255-1.483 0-1.7m-4.633 1.237c.352.214.057 1.076.154 1.546-.352-.214-.057-1.076-.154-1.546m42.015 4.793c.257.622.257 2.315 0 2.937v-2.937m-5.406 1.546c.256.418.256 1.9 0 2.319v-2.32m16.528 6.803c.315-.355 1.283-.056 1.854-.154-.315.354-1.283.055-1.854.154m-.927 1.237c.571-.257 2.21-.257 2.78 0h-2.78"/><path fill="#1B1A19" d="M78.934 87.725c1.95-3.471 2.37 2.865 0 0"/><path fill="#926A3A" d="M85.267 90.971c-.1.674.201 1.748-.155 2.165.1-.673-.201-1.748.155-2.165m-16.528 1.083c.467-.357 1.593-.055 2.317-.155-.468.357-1.594.054-2.317.155"/><path fill="#1B1A19" d="M84.031 93.445c-.234.384-.688.548-1.39.464-1.374-1.37 1.678-2.67 1.39-.464"/><path fill="#926A3A" d="M26.723 107.978v2.628c-.257-.52-.257-2.108 0-2.628m76.771 2.319c.47-.257 2.003-.257 2.472 0h-2.472m-85.885 3.246v2.474c-.256-.47-.256-2.004 0-2.474m15.447 4.638h2.318c-.419.257-1.9.257-2.318 0m-25.024 9.586c1.289.102 2.985-.205 4.017.154-1.289-.102-2.985.205-4.017-.154m2.935.773h6.024c-1.648.257-4.375.257-6.024 0m5.561 1.237c.267-.257 1.587-.257 1.854 0h-1.854m103.958 2.473c-.349.115-.06.867-.155 1.237-.3-.063-.248-1.877.155-1.237m-.927 2.165c.256.216.256 1.484 0 1.7v-1.7"/><mask id="b" fill="#fff"><use xlink:href="#a"/></mask><path fill="#926A3A" d="M122.803 141.526h1.544c-.166.256-1.378.256-1.544 0" mask="url(#b)"/><path fill="#1B1A19" d="M129.6 136.115c.898 1.214 1.464 2.76 1.853 4.484 2.016-.199 4.083-.345 5.56-1.083-1.314-2.188-4.608-3.22-7.414-3.4zm-104.73.31c-.167-.919-1.317-1.668-2.009-1.547 1.097.295 1.18 1.603 1.7 2.474.024.182-.027.439.154.464.08-.568.442-.855.154-1.391zm104.111-1.237c3.077.519 5.832 1.017 7.57 2.628.562.522.88 1.888 2.008 1.237-.464-3.608-5.442-4.86-10.041-4.33a.782.782 0 0 1 .463.465zm-112.916-.619c-.735.657-1.461 1.321-1.39 2.783 1.29 1.388 4.156 2.14 6.642 1.392-.613-2.531-2.487-3.8-5.252-4.175zm112.298 6.494c.798-.027 1.744.095 2.317-.155-1.13-2.888-1.554-6.484-4.942-7.112 1.102 1.578 2.19 4.506 2.625 7.267zM17.3 134.26c1.848 1.191 4.292 1.786 4.789 4.329.762-.165 1.648-.206 2.008-.773-.807-2.531-4.22-5.664-6.797-3.556zm105.812-.927c1.598 1.955 1.663 5.446 2.471 8.193.741-.03 1.307-.237 2.008-.309-.31-3.709-1.458-7.404-4.48-7.884zm1.235 8.193c.6-3.17-.66-7.721-2.78-8.657.72 2.596 1.71 5.702.772 8.657h.464c.166.256 1.378.256 1.544 0zm-4.016-8.039c.432 3.18-.901 5.363-.927 7.576.52.097.792.443 1.545.309 1.161-2.789 1.146-6.865-.463-9.122-.403-.64-.455 1.174-.155 1.237zm-.772.928c-.066-1.12-.11-2.26-.773-2.783-.304 3.509-1.773 5.852-2.934 8.503.554.32 1.67.08 2.471.154.434-1.369.997-2.609 1.236-4.174.256-.216.256-1.484 0-1.7zm-108.128.927c.434.699.827 1.44 1.853 1.546 1.06-2.855 5.118-2.711 6.025-5.72-3.59-.773-6.7 1.513-7.878 4.174zm104.73-5.565c-.431 4.464-2.465 7.324-4.48 10.203 1.238.054 2.094-.274 3.398-.154 1.442-2.577 2.988-5.049 2.78-9.276-.516-.307-.717-.93-1.699-.773zm-99.633 0c-2.799.342-4.896 1.386-6.488 2.937.194.322.379.652.618.928 1.919-.405 3.104-2.173 4.943-2.783 1.034-.343 2.342-.024 3.244-.928-.197-.008-.214-.198-.463-.154-.267-.257-1.587-.257-1.854 0zm-5.56-1.237c-1.186.102-2.78-.205-3.708.154.478 1.17.874 2.424 2.162 2.783 2.332-1.48 5.775-1.848 8.496-2.937H10.967zm99.632 11.44c1.079-1.355 2.632-3.169 3.552-5.256.778-1.764 2.121-5.539.464-6.648-.739 5.342-4.35 7.81-6.951 11.286-.31.257-.718.415-.773.927 1.168-.17 3.041.364 3.708-.309zm2.935-12.986c-1.666 2.34-3.187 4.58-5.407 6.493-2.02 1.74-5.789 2.754-5.56 6.184 2.527 1.327 4.778-1.472 6.333-3.092 2.526-2.632 4.907-5.37 5.251-9.585-.032-.174-.17-.24-.308-.31-.002.205-.271.142-.31.31zm-3.862 4.02c.952-1.724 5.077-4.285 2.471-6.185-.341.122-.386.541-.617.773a14.76 14.76 0 0 0-2.009 2.01c-1.796 1.81-4.36 2.85-6.333 4.484.313 1.334-.119 2.6 0 3.556 2.004-.571 3.3-1.852 4.789-2.938a10.55 10.55 0 0 0 1.699-1.7zm-97.624-3.093h5.715c-1.739-1.25-4.372-.86-6.488-1.391-2.185-.549-3.908-1.57-5.56-2.319-.54 1.895.55 3.457 2.316 3.556 1.032.359 2.728.052 4.017.154zm-4.017-6.184c-.665-.395-1.904.173-2.317.773.652 1.665 3.345 2.415 5.407 3.092 1.738.57 5.126 2.01 6.487.464-3.668-.422-7.004-2.8-9.577-4.329zm101.023 5.411c1.79-1.548 3.785-4.135 1.081-5.565-2.984 2.27-6.294 4.213-8.187 7.575.255.621.435 1.317.773 1.855 1.732-.649 4.495-2.275 6.333-3.865zm-94.38-4.329c-1.34-.982-1.806-2.545-2.78-3.71-4.647.865-2.021 3.615.771 4.947 1.888.901 3.942 1.22 5.407 1.391-.15-1.58-2.22-1.763-3.399-2.628zm85.884 1.701c-.627.892.244 2.527.927 3.092 1.423-1.004 3.844-3.688 5.87-4.947 1.849-1.15 3.488-1.955 1.545-4.174-2.272 1.179-4.343 2.558-6.334 4.02a14.759 14.759 0 0 0-2.008 2.009zm-87.893-6.493c.35 2.15 2.094 3.477 3.553 4.638 1.329 1.057 2.38 2.399 3.553 1.082-1.888-2.49-4.742-4.014-5.252-7.884-.96.379-1.394 1.284-1.854 2.164zm93.454 1.082c.702-.39 1.63-.379 2.008-1.237.32-1.014.343-2.62-.927-2.783-.569-.073-1.815.958-2.471 1.392-2.72 1.798-9.08 4.894-4.943 7.73 2.078-1.647 3.96-3.784 6.333-5.102zm-88.51-5.566c-.015-.787.323-1.222.308-2.01-.802.433-2.224 1.796-2.471 2.474-1.084 2.97 3.334 8.225 5.715 8.658-1.257-2.143-3.206-3.594-3.553-6.648v-2.474zm85.884-3.246c-4.881 1.147-9.451 3.419-10.04 8.348 1.582.375 2.688 1.226 3.861 2.01 3.052-2.15 6.074-4.33 9.423-6.184-.076-1.47.162-3.255-.464-4.174h-.308c-.47-.257-2.003-.257-2.472 0zm-67.657-.464c-1.107-2.243-1.196-5.503-1.39-8.658-2.432 1.36-.036 6.946.463 9.122.324 1.067.787 1.995 1.39 2.783.196.473.526.813.772 1.236.772 1.06 2.137 3.73 3.708 2.474-.458-.996-1.48-1.33-2.163-2.164-1.121-1.373-1.853-3.163-2.78-4.793zm-.463 8.348c1.085.108 1.421-.535 2.007-.927-2.959-4.201-5.64-8.682-5.406-16.079-2.894 1.124-4.848 3.188-5.252 6.803-.257.52-.257 2.108 0 2.628.51 4.129 2.063 7.211 6.333 7.575.418.257 1.9.257 2.318 0zm11.43-16.078c-1.048-.705-2.608-1.718-3.862-1.7 1.187.718 2.411 1.4 3.708 2.009.18.23.641.182.617.618-.386-.128-.606-.423-1.08-.464-.506-.322-1.45-1.018-2.009-.772.702.38 1.329.834 2.008 1.236.664.314-.1.36-.463.155-.19-.134-.93-.493-1.081-.155.515 0 .527.503 1.08.464 2.522 1.187 4.262 3.156 6.334 4.793.132-.361-.54-.666-.155-.773.316.148.612.316.927.464-.06-.66-.683-.759-.772-1.392.155 0 .184.126.309.155.297.373.725.614 1.081.927-.134-.484-.382-.853-.772-1.082-1.424-2.028-3.555-3.348-5.87-4.483zm36.455 4.947c-.276-2.61-.809-4.963-1.236-7.42-.276 2.782.291 5.417 1.236 7.42zM50.82 96.537c-.155 0-.184-.125-.309-.154.108 1.49 1.667 1.526 2.317 2.473.074-.486-.22-.604-.309-.928-.084-.946-.917-1.143-1.699-1.391zm34.91 8.812c3.612-2.93 7.563-5.52 14.057-5.565.269-6.249-8.043-5.795-12.358-3.711-1.475.713-4.04 2.192-4.325 3.092-.868 2.748.79 5.012.927 7.576.609.192 1.214-.947 1.7-1.392zm12.358-10.667c.603.788 1.27 1.512 1.853 2.319.09.322.325.5.464.773.34.638.555 1.402 1.081 1.855.27-.012.48.035.618.155.006-.213-.073-.34-.155-.464-.973-2.17-2.363-3.922-4.016-5.411-.182.024-.438-.027-.463.155.272.14.478.345.618.618zM96.08 91.28c-3.23-.577-7.033 1.21-9.578 1.7-1.109 1.673-1.927 3.637-4.788 3.556-.31.462-.087 1.459-.154 2.165 3.203-2.618 7.881-4.872 13.593-5.411.929-.088 2.027.2 2.78-.464-.058-1.044-1.114-1.415-1.853-1.546zm-47.422-1.083c-.324 2.025.347 4.393 2.317 4.638.066-1.406-.266-2.414-.927-3.092-.3-.679-.85-1.108-1.39-1.546zm-4.171-3.4c-.608-.372-.937-1.021-1.545-1.392-1.662 1.999-.112 5.203 1.236 6.493a14.773 14.773 0 0 0 2.008 2.01c1.032.72 1.84 1.662 3.09 2.164-.036-1.072-.88-1.586-1.236-2.782-.489-1.642-.03-3.824-1.236-4.175a19.615 19.615 0 0 0-2.317-2.319zm2.471-1.856c.01.936-.215 1.64-.308 2.474.488.748 1.328 1.144 2.162 1.545.09-.992.528-1.636.618-2.628-.98-.308-1.576-1-2.472-1.391zm-2.316-2.32c-.666.417-.938 1.227-1.236 2.01.755.893 1.613 1.684 2.626 2.32.435-2.101.003-3.668-1.39-4.33zm45.104 7.886c-1.183-4.124-3.11-7.503-6.796-9.122-.532.858-1.167 1.615-1.7 2.473 1.11.56 2.884 1.859 2.163 3.247-1.888-.095-2.235-2.348-4.48-1.7-1.142.33-1.894 2.6-1.08 3.71 1.02 1.394 2.77-.11 3.861.928.119 1.055-.946 2.9-.309 4.483 1.032 1.194 3.899.51 3.707-1.391.356-.417.055-1.491.155-2.165.159-.82.558-1.4 1.699-1.237.377.397.322 1.224.309 2.01.677.158 2.897-.29 2.471-1.236zm-44.023-8.349c.187 1.363 2.083 2.255 3.09 2.783-.375-3.106.482-4.979 1.544-6.648-3.428-1.76-5.024 1.031-4.634 3.865zm39.853-4.483c1.133-1.418-1.325-1.572-2.78-1.392-1.368 1.272-3.709 3.58-5.253 6.493-1.97 3.716-5.483 12.392 2.008 11.132-.064-1.147.477-1.687.31-2.938-5.19 1.284-4.042-7.26 0-6.338 1.015-1.973 2.423-3.552 3.861-5.102a12.55 12.55 0 0 0 1.854-1.855zm-4.48-1.237c.495-.072.545-.589 1.082-.619-1.811-1.977-5.161-2.873-8.496-4.02-5.555-1.909-15.395-3.567-19.463.31-.683.553-1.3 1.172-1.854 1.855-.029.565 3.091-.095 4.325 0 .57-.099 1.539.2 1.854-.154 3.323-.132 6.13.254 7.723 1.855-2.686-.043-4.8-.66-7.723-.464-.571-.257-2.21-.257-2.78 0-1.402.04-3.07-.187-3.863.464-.018 3.579-2.435 5.62-.617 7.884 1.32 1.644 4.216 2.73 6.333 3.711-2.535-.246-4.49-1.072-6.333-2.01 2.372 5.561 9.542 7.799 17.455 6.803.723-.1 1.85.202 2.317-.155 1.295.11 2.032-.337 2.934-.618.89-4.985 2.426-9.322 4.944-12.678a17.132 17.132 0 0 0 2.162-2.164zm-33.21.773h2.007c.444-4.504 3.278-6.615 6.488-8.349-5.417-1.957-9.26 2.695-8.496 8.349zm1.08-10.668c.093.32-.19 1.016.155 1.082 2.403-.78 5.427.145 7.569.619v.154c.437-.127.4.218.772.155-.243-.53-.735-.81-1.236-1.082-1.121-.681-2.758-.847-4.479-.928-.57-.257-2.21-.257-2.78 0zm10.041-6.957c-3.516-1.738-7.661-2.845-11.43-4.329 2.071 2.204 6.034 2.515 8.804 4.02 3.039 1.133 4.973 3.371 7.878 4.638-1.184-2.01-3.09-3.298-5.252-4.329zm33.056-7.112c-.792-.398-1.361-.265-1.699.464-2.031 1.78-4.096 3.527-6.642 4.793-1.309.287-2.437.755-4.016.773-.124.49 1.044 1.013 1.854 1.082.765.398 1.954.04 2.471-.31 1.504-.48 3.17-1.368 4.943-2.782 1.12-.893 3.745-3.098 3.244-4.02-.012-.021-.135.018-.155 0zm-27.495 9.276c3.782-3.095 8.31-7.845 9.732-13.295.212-.817.481-2.511-.31-2.783-1.105 5.026-3.507 8.754-6.332 12.059a54.68 54.68 0 0 0-3.862 3.865c.323.096.58.793.772.154zm16.22-4.638c4.261-.784 7.055-3.038 10.04-5.102-2.7-1.332-5.343-3.495-4.943-7.42-4.502.802-7.415 3.195-8.342 7.575 1.316-.847 2.459-1.868 3.862-2.628-.111.559-.897.442-.927 1.082a10.552 10.552 0 0 0-1.699 1.7c-.686 1.066-1.696 1.808-1.545 3.711.533.446.823 1.135 1.854 1.082.216.256 1.483.256 1.7 0zm7.105-13.14c-.865 3.818 2.31 6.088 5.715 6.647.518-.37.49-1.1.927-1.7.545-.75 1.924-1.277 1.545-1.856-.9-.259-1.038.527-1.854.619-2.242.251-3.958-1.803-4.325-3.866-.811-.09-1.17.273-2.008.155zm6.642-.928c-.358-.05-.593.024-.772.154.179 1.32 1.346 3.633 3.552 2.938-.12-.705-.834-.815-1.08-1.392a10.552 10.552 0 0 0-1.7-1.7zM59.47 42.58h-.154c-1.256 1.267-2.59 2.458-4.788 2.783-1.396 1.232-1.314 3.942-2.472 5.41 4.153.895 8.62 2.3 10.504 4.948-3.447-1.498-6.736-3.153-11.276-3.556a10.275 10.275 0 0 0-1.854 2.474c4.566 2.13 9.78 3.61 13.748 6.338 4.197-3.426 7.317-7.93 8.804-14.068-.79.24-1.494.566-2.471.618h-2.163c-2.764-.273-4.231-1.845-6.024-3.092a12.596 12.596 0 0 0-1.854-1.855zm-17.763 1.7c-.322-1.112-.01-3.83-1.39-2.937-.9.233-1.897.37-2.627.773-1.213.177-2.318.463-3.398.773-.78.096-1.56.19-2.162.464-3.013.438-6.027.873-9.114 1.236-.52.098-1.435-.199-1.7.155h-.463c-.673.1-1.746-.202-2.162.155H9.732c-.468-.357-1.594-.055-2.317-.155H6.95c-.214-.352-1.075-.058-1.545-.155-.463-.205-1.181-.157-1.853-.154v.773c-.355.315-.056 1.284-.155 1.855v.619c-.359 1.186-.052 3.04-.154 4.483v.928c.102 1.495-.205 3.4.154 4.638v.618c.1.622-.2 1.644.155 2.01v.464c.097.47-.198 1.332.154 1.546.023 2.09.306 3.92.618 5.72.009.713.071 1.372.31 1.856v.154C9.09 81.41 15.18 91.084 27.185 94.836c.183.178.547.175.927.155 1.917-.034 4.871-2.281 6.488-3.865 5.38-5.271 8.64-13.225 10.658-20.871.189-.482.36-.98.31-1.701.256-.622.256-2.315 0-2.937a8.223 8.223 0 0 0-.31-2.474c-.009-.713-.071-1.372-.309-1.856v-.154c-.078-.9-.163-1.795-.463-2.474v-.154c-.01-.608-.075-1.162-.309-1.546v-.155c-.01-.608-.075-1.162-.309-1.546.02-.381.024-.745-.154-.928-.051-.876-.194-1.66-.464-2.319-.04-.937-.246-1.711-.463-2.473-.26-1.854-.565-3.66-1.081-5.257zm49.43.31c.094-1.35.155-2.73 1.853-2.474-.106-.622.148-.882.155-1.391-2.527-1.036-3.31 2.356-2.008 3.864zm-71.52-3.556c1.968-.092 3.827-.293 5.562-.619-1.777-.463-4.19-.563-5.87 0-.791.085-1.364.388-1.854.773.673-.1 1.746.202 2.163-.154zm81.714 0c-1.516-.851-5.065-3.547-4.943-.464.043 1.083 1.559 1.409 1.7 2.165-1.168-.306-1.694-2.446-3.244-1.392 1.075 2.334 4.007 6.923 6.487 3.401-.476-.3-1.687-.676-1.544-1.082 1.613 1.297 4.945 1.488 5.406-.927-1.008-.166-2.3-.825-3.862-1.701zm-2.78-3.092c-.207 2.247 5.233 3.083 6.488 4.329 1.033-.461 1.836-1.152 2.317-2.165-.672-.77-.886-1.999-2.317-2.01-.48 1.043-2.115 1.395-3.398.773-.095-.627-.533-.91-.464-1.7-1.14-.747-2.52-.382-2.626.773zm3.553-1.083h-.463c-.11.78.277 1.063.463 1.547.516.22 1.491.22 2.008 0 .296-.941.802-1.672 1.081-2.629-.564-.62-.889-1.48-1.39-2.164-.597-.03-1.138-.006-1.545.154-.313.614-.573 1.282-.617 2.165.527.4 1.85.003 2.008.773-.47.097-1.33-.198-1.545.154zm-75.999-4.638V31.14c-.622.15-.87.676-1.236 1.082-4.63 2.864 1.557 9.48 5.87 7.73.155 0 .184-.125.31-.154-.916-1.404-2.227-2.41-3.4-3.556-.647-1.207-1.4-2.308-1.544-4.02zm11.74-2.01c-1.164-.526-2.17-2.218-4.016-2.164-1.399.041-5.952 2.976-6.18 3.865-.342 1.342.699 2.788 1.391 3.865a28.26 28.26 0 0 0 2.78 2.783c1.768 2.549 8.114-.962 10.196-1.7-.27-1.999-1.186-3.349-2.163-4.639a14.773 14.773 0 0 0-2.008-2.01zm34.91 5.875c-.59-3.016-3.386-3.826-5.561-5.256-.858-1.306-1.767-2.56-3.09-3.401.094.37-.193 1.121.155 1.237.04 2.616-.45 4.702-.927 6.802-.297.438-.776 1.58-.154 2.01v.155c1.347 2.877 2.532 5.917 5.406 7.266 1.095.347 2.224.66 3.707.618.38-1.371.744-2.76.773-4.483.256-.368.256-1.797 0-2.165.039-1.07-.041-2.02-.31-2.783zm7.723-10.513c-.282 1.08 1.158 3.15 1.39 4.639 1.018-1.3 2.579-2.058 3.399-3.556-1.673.242-4.265-3.084-4.789-1.083zm-42.17-1.391c-1.281.789-3.158 1.773-3.553 2.937 2.025.036 3.024 1.097 4.326 1.856a14.79 14.79 0 0 0 2.008 2.01c1.278 1.658 2.185 3.687 2.78 6.03 3.77-3.721 1.196-12.466-4.016-12.833-.167-.256-1.378-.256-1.545 0zm23.634-2.165v-.154c-.854-.184-.26 1.08-.618 1.392 1.145.503 1.663 1.633 2.317 2.628v.154c2 2.07 4.43 3.708 6.951 5.257-1.853-4.071-4.585-7.264-8.495-9.277h-.155zm-10.195 5.72c-.717-6.42-8.56-10.173-13.13-5.101 4.706.835 8.29 4.95 8.187 10.204-.04 1.98-.991 2.864-1.236 4.329 4.067-1.139 6.73-4.502 6.18-9.431zm25.333-8.811c.334-1.43-1.002-2.08-1.854-1.392-.039.864.082 1.567.927 1.546 2.782 2.009 4.445 5.136 8.032 6.339 1.206.545 2.577.925 4.171 1.082.151-.363-.606-1.14-.772-1.7-.066-.553-.412-.826-.309-1.546-.372-.064-.336.282-.773.154-.023.954.64 2.035.464 2.628-.983-.356-1.94-.738-2.935-1.082-2.97-1.356-4.73-3.924-6.951-6.03zM49.893 38.56c4.673-1.66 7.505-6.005 7.26-11.131-.312-6.553-6.367-11.602-13.284-9.74 6.074.775 10.869 2.83 11.43 9.121v1.7c-.415 4.79-2.427 7.981-5.715 9.896-.647.124-1.001.543-1.699.618-.072.276 1.623-.185 2.008-.464zM84.65 16.298c-.024-.181.026-.438-.154-.463-1.491 1.393-3.38 2.389-6.025 2.628.788 2.458 3.338 3.152 5.87 3.865v-.619c.355-.365.055-1.387.155-2.01V18c.353-.265.056-1.18.154-1.7zm-7.878 7.267c.131-1.214-.315-1.85-.618-2.628-4.17.044-2.547-6.66 1.081-4.948.728.343.59 1.027 1.236 1.7 1.446-.459 3.124-.686 4.171-1.545-1.56-5.063-7.574-8.817-14.057-6.494 5.457-4.086 12.648 1.16 14.83 5.411C82.96 6.63 65.332 3.608 65.03 13.98c-.256.47-.256 2.005 0 2.474.312 3.244 1.893 5.217 3.399 7.266a14.756 14.756 0 0 0 2.008 2.01c1.588 1.297 3.557 2.212 6.024 2.628-.107-1.292.386-1.985.309-3.246.256-.167.256-1.38 0-1.546zM61.633 13.36c.2-6.035 3.704-8.764 8.341-10.358-7.506-.067-10.852 7.644-8.959 14.996.238.924.29 2.476 1.39 2.474-.034-1.41-.95-3.274-.772-5.412v-1.7zm99.323-11.904c-2.933.252-4.274 1.139-6.333 2.473a4458.09 4458.09 0 0 1-45.722 29.22c-.234.148-3.354 1.418-2.318 2.474.471.48 2.987-1.285 3.399-1.547 16.742-10.625 33.343-21.08 49.893-31.538.561-.355 1.574-.735 1.236-1.082h-.155zM162.81.22c.319.093 1.073-.25.927.309h-.155c-2.127 4.498-5.846 6.66-10.195 9.43-14.777 9.418-30.528 19.027-44.95 28.602.487 1.331 2.941 3.517 2.163 4.484-1.031 1.279-1.385-.83-2.317-1.392-.14.994-.735 1.532-1.854 1.546-.304.847-.912 1.659-1.854 2.01-.578.216-1.217-.047-1.853.155-1.288.408-2.938 2.348-4.634 1.7-.373 1.03-1.628 1.068-2.163 2.165-.305.625-.08 1.527-.463 2.164-.437.727-1.182.926-1.854 1.392-2.137 3.54-6.2 7.37-10.813 8.348-.642.136-1.579.038-2.471.31-1.55.471-2.852 1.897-4.17 1.7-2.27-.34-3.04-4.894-6.334-4.484-1.606.2-3.507 3.18-4.789 4.02 1.444 1.193-.444 2.598-.617 4.02 1.692-.149 2.216.873 2.78 1.855 3.08 1.078 6.112 1.305 8.96 2.628 2.59 1.204 4.978 3.066 7.568 3.865.644.199 1.526.052 2.163.31.843.34 1.398 1.614 2.317 2.164 1.915 1.145 4.737.903 6.178 2.01 1.352 1.038 2.472 4.932 3.09 7.111.733 2.587 1.327 5.648 2.471 7.576.54.909 1.519 2.016 2.317 3.092.752 1.014 1.624 2.439 2.317 3.092.868.818 1.643.896 2.163 1.855 1.732 3.197 1.696 8.568 1.853 11.905 2.509 5.79 3.513 10.99 8.342 14.842 2.605 2.078 6.939 3.413 10.658 4.174 4.538.929 8.945.977 10.968 3.71 3.48 4.704-3.425 5.83-7.724 6.34-3.72.44-7.715.41-11.122.772h-17.3c-2.648-2.664-.267-6.555-.309-9.74-.033-2.495-1.308-5.19-2.472-7.421-1.1-2.11-2.247-4.526-4.325-5.565-.796-.399-2.147-.519-3.09-.928-1.668-.725-3.797-2.457-5.56-3.865-2.557-2.043-5.177-3.755-4.17-7.73-.865-1.954-1.208-4.12-1.545-7.112-.221-1.963-.092-6.296-1.7-6.957-1.496-.615-3.407.255-4.633-.773-.28-.234-.202-.898-.773-.928-3.111.206-6.6.785-9.886.31-1.323.891-2.44 1.99-4.17 2.473-1.337 2.064-1.866 4.935-4.944 5.256-.692 1.266-1.38 2.536-1.699 4.175 1.631 1.55.77 7.347-.926 8.967-.792.755-2.763 1.156-4.326 1.546-1.492.372-3.623.317-4.788.927-1.347.706-1.025 1.987-2.163 2.165-.892.14-1.379-.494-2.008-.464-2.608 2.073-6.335 5.193-11.585 4.792-.737-.055-1.715-.526-2.472-.463-1.262.105-5.656 2.26-6.024 3.401-.83 2.577 1.56 4.15 2.008 6.339 1.965 1.268 6.005 2.062 5.87 4.947-.079 1.684-2.804 3.282-4.788 3.556-3.92.54-9.566-1.689-11.277-3.092-.892-.732-2.42-3.451-3.243-4.793-1.644-2.68-2.89-4.259-3.553-6.648-.644-2.317-.474-6.443 3.243-5.256 1.343-1.793 3.85-2.363 5.407-4.02 1.508-1.602 2.65-3.922 4.17-5.875 3.783-4.853 7.55-8.2 14.057-10.668.977-.37 2.701-1.366 3.553-1.39 1.17-.034 1.495 1.048 2.008.309.704-1.015-2.54-2.484-2.008-3.866-1.761 1.131-3.287 2.659-5.715 2.783-3.459.178-7.078-2.028-9.732-3.71-5.703-3.614-9.506-8.044-12.975-13.915-1.7-2.875-3.562-6.23-4.325-8.966C.445 67.857.605 62.539 0 58.659V46.755c.286-1.981.338-4.197.618-6.184 4.413.84 9.426 1.078 14.675 1.082.82-.701 1.423-1.039 1.235-1.855-.26-1.127-2.345-1.29-2.471-2.628 2.762-.211 3.721-.629 5.406-1.856 1.664-1.211 2.712-2.253 3.244-4.174.668.002.61.73 1.081.928.516-.782 1.285-1.888 2.317-2.165.632-.169 1.42.139 2.008 0 2.05-.481 3.273-2.782 5.407-2.783.581-.809.95-1.831 1.699-2.473.85-5.592 4.978-7.902 10.813-8.503.48-.448.209-1.646.772-2.01 5.61-1.476 10.531 2.118 13.13 4.638-2.4-7.971 1.125-15.664 8.187-16.388 9.187-.942 14.173 4.793 16.374 11.75.746.173 1.054-.894 1.544-.464-.186 2.984-1.67 8.387 1.7 8.967-.042 2.309 1.451 3.082 2.162 4.638-2.459.606-3.89 1.401-5.716 2.783-1.057.8-2.093 2.283-3.089 2.474-2.252.43-4.558-1.745-6.796-1.083 1.065 1.51 4.52.629 4.48 3.247-1.234.546-3.148-.496-4.171.31.18 1.185 1.32 1.749 2.008 2.782 1.485 2.23 2.48 5.069 2.47 8.812 1.65-1.905 6.304-2.143 8.188-4.328.803.167 1.144.935 2.162.464.241-1.92 1.395-3.59 3.862-2.783 1.528-2.698 4.19-4.259 7.57-5.102.429-1.013 1.125-1.759 2.47-1.855-.581-1.133-1.846-2.36-1.853-3.557.461-.002.525-.402.927-.463 1.505 1.328 2.15 3.517 3.398 5.101 14.963-9.557 30.175-19.215 45.26-28.91C154.451 2.994 157.965.532 162.81.22z" mask="url(#b)"/><path fill="#926A3A" d="M68.43 23.72a14.74 14.74 0 0 1 2.008 2.01 14.756 14.756 0 0 1-2.008-2.01"/><path fill="#F1A94A" d="M65.031 13.98c.302-10.372 17.93-7.35 18.382 1.081-2.181-4.251-9.372-9.497-14.829-5.41 6.483-2.324 12.497 1.43 14.057 6.493-1.047.859-2.725 1.086-4.17 1.546-.647-.674-.51-1.358-1.237-1.7-3.628-1.714-5.25 4.991-1.08 4.947.302.778.748 1.414.617 2.628v1.546c.077 1.261-.416 1.954-.309 3.246-2.467-.416-4.436-1.331-6.024-2.628a14.74 14.74 0 0 0-2.008-2.01c-1.506-2.049-3.087-4.022-3.399-7.266v-2.474"/><path fill="#F1A94A" d="M81.405 18.308c-.155 2.01.857 2.853 2.472 3.092.319-2.175-1.186-2.524-2.472-3.092zm2.935 3.401v.619c-2.532-.713-5.082-1.407-5.87-3.865 2.645-.239 4.534-1.235 6.025-2.628.18.025.13.282.154.463-.354.265-.057 1.18-.154 1.7V19.7c-.356.365-.056 1.387-.155 2.01z"/><path fill="#B6B5B1" d="M49.893 38.561c-.385.28-2.08.74-2.008.464.698-.075 1.052-.494 1.7-.618.034.12.129.18.308.154m37.69-13.76c.167.56.924 1.338.773 1.701-.296-.528-.72-.927-.772-1.7"/><path fill="#FFFFFE" d="M84.031 24.956c.995.344 1.952.726 2.935 1.082.176-.593-.487-1.674-.464-2.628.437.128.4-.218.773-.154-.103.72.243.993.309 1.545.051.774.476 1.173.772 1.701-1.594-.157-2.965-.537-4.17-1.082-.106-.251-1.114-.468-.155-.464"/><path fill="#B6B5B1" d="M77.08 18.927c2.222 2.105 3.981 4.673 6.951 6.029-.96-.004.05.213.154.464-3.587-1.203-5.25-4.33-8.032-6.339 2.165 1.029 3.126 3.262 5.098 4.484-.812-1.507-3.102-2.874-4.171-4.638"/><path fill="#FFFFFE" d="M55.3 26.811c-.562-6.291-5.357-8.346-11.43-9.121 6.916-1.862 12.97 3.187 13.283 9.74.245 5.126-2.587 9.47-7.26 11.131-.18.025-.274-.034-.309-.154 3.288-1.915 5.3-5.106 5.716-9.895.256-.217.256-1.484 0-1.7m20.853-7.73c-.845.02-.966-.683-.927-1.547.852-.689 2.188-.039 1.854 1.392 1.07 1.764 3.359 3.13 4.17 4.638-1.971-1.222-2.932-3.455-5.097-4.484"/><path fill="#926A3A" d="M61.942 22.018c-.681-.217-.003.926-.463.928.821.878 1.8 1.6 2.162 2.938-.654-.995-1.172-2.125-2.317-2.628.359-.312-.236-1.576.618-1.392v.154"/><path fill="#926A3A" d="M63.641 26.038c2.243 1.673 4.224 3.606 6.797 4.948-2.01-3.76-4.716-6.824-8.341-8.968 3.91 2.013 6.642 5.206 8.495 9.277-2.52-1.549-4.95-3.188-6.951-5.257"/><path fill="#F1A94A" d="M61.942 22.018h.155c3.625 2.144 6.33 5.207 8.34 8.968-2.572-1.342-4.553-3.275-6.796-4.948v-.154c-.363-1.338-1.34-2.06-2.162-2.938.46-.002-.218-1.145.463-.928m-22.861 6.958c-1.302-.76-2.3-1.82-4.326-1.856.395-1.164 2.272-2.148 3.553-2.937h1.545c5.212.367 7.786 9.112 4.016 12.832-.595-2.342-1.502-4.371-2.78-6.03a14.756 14.756 0 0 0-2.008-2.01"/><path fill="#926A3A" d="M39.08 28.976a14.756 14.756 0 0 1 2.009 2.01 14.79 14.79 0 0 1-2.008-2.01m24.251 6.493c-.052.72-.544 1.295-.154 2.01-.622-.43-.143-1.572.154-2.01m-.154 2.165c1.539 2.685 2.671 5.778 5.406 7.266-2.874-1.35-4.06-4.39-5.406-7.266m1.081-8.967c-.348-.116-.06-.868-.155-1.237 1.323.84 2.232 2.095 3.09 3.401 2.175 1.43 4.97 2.24 5.56 5.256-.481-2.895-3.576-3.381-5.56-5.101-1.243-1.079-1.495-2.547-2.935-3.247v.928M29.04 35.778c.991.864 1.918 1.791 2.78 2.783a28.26 28.26 0 0 1-2.78-2.783m8.805-5.565a14.773 14.773 0 0 1 2.008 2.01 14.756 14.756 0 0 1-2.008-2.01m-12.976 2.01c.367-.407.614-.933 1.236-1.083v1.082c-.341-.019-.065-.655-.154-.927-.456.213-.626.714-1.082.927m2.78 4.02c1.173 1.146 2.484 2.152 3.4 3.556-.126.03-.155.155-.31.155-.19-1.471-2.261-2.366-3.09-3.711"/><path fill="#F1A94A" d="M103.649 36.706c-.158-.77-1.48-.374-2.008-.773.044-.883.304-1.551.617-2.165.407-.16.948-.184 1.545-.154.501.684.826 1.544 1.39 2.164-.28.957-.785 1.688-1.081 2.629-.517.22-1.492.22-2.008 0-.186-.484-.573-.767-.463-1.547h.463c.47-.096 1.33.199 1.545-.154"/><path fill="#F1A94A" d="M101.177 37.17c-.07.79.369 1.073.464 1.7 1.283.622 2.918.27 3.398-.773 1.43.011 1.645 1.24 2.317 2.01-.481 1.013-1.284 1.704-2.317 2.165-1.255-1.246-6.695-2.082-6.488-4.33.106-1.154 1.487-1.52 2.626-.772"/><path fill="#F1A94A" d="M105.193 42.736c-.461 2.415-3.793 2.224-5.406.927-.143.406 1.068.782 1.544 1.082-2.48 3.522-5.412-1.067-6.487-3.401 1.55-1.054 2.076 1.086 3.244 1.392-.141-.756-1.657-1.082-1.7-2.165-.122-3.083 3.427-.387 4.943.464 1.561.876 2.854 1.535 3.862 1.7"/><path fill="#926A3A" d="M19.618 41.035c-.417.356-1.49.055-2.163.154.49-.385 1.063-.688 1.854-.773-.296.271-.806.328-1.236.464.214.353 1.075.058 1.545.155"/><path fill="#FFFFFE" d="M93.145 40.726c-.007.509-.261.77-.155 1.39-1.698-.256-1.76 1.126-1.853 2.474-1.303-1.508-.52-4.9 2.008-3.864"/><path fill="#F1A94A" d="M12.666 59.123c.007-2.158.933-3.395 3.399-3.092 1.163.691 1.624 2.085 1.853 3.71 1.558-.038 2.918-.274 4.326-.463.819-9.275-15.054-8.942-14.057.31-.256.216-.256 1.483 0 1.7.88 5.401.245 11.378 3.398 14.378 2.932 2.789 8.871.855 12.667-.155-.58-3.954-.954-8.115-1.545-12.059-2.36.215-4.78.37-6.797.928.311.977.307 2.27.464 3.401.878.06 1.935-.37 2.471-.155.162 1.796.408 3.508.618 5.257-6.709 4.122-6.22-7.518-6.797-11.905v-1.855zm27.496 8.04c-.724-5.666-1.291-11.489-2.163-17.007-1.27.429-3.22.178-4.325.773.526 2.861.786 6.037 1.236 9.895.46 3.936 2.678 11.484-2.163 10.977-3.195-.336-2.843-6.148-3.244-9.276-.515-4.022-.933-7.507-1.39-11.132-1.35.298-2.975.32-4.325.618 1.697 5.932.22 18.515 4.325 21.954 3.827 3.205 12.187.806 12.049-4.483.256-.419.256-1.9 0-2.32zm.154-25.82c1.38-.891 1.07 1.826 1.39 2.938.304 1.81.605 3.62 1.082 5.257.217.762.422 1.536.463 2.473.051.877.194 1.662.464 2.32.178.182.175.546.154.927.01.608.075 1.162.31 1.546v.155c.01.607.074 1.162.308 1.546v.154c.079.901.163 1.795.463 2.474v.154c.01.713.072 1.372.31 1.856.209.718.325 1.529.308 2.474v2.937c.051.72-.12 1.22-.309 1.7-3.394 10.57-7.242 20.684-17.146 24.737-.38.02-.744.023-.927-.155C15.392 90.872 9.265 81.236 4.634 70.1v-.154c-.009-.713-.071-1.372-.309-1.856-.312-1.8-.595-3.63-.618-5.72-.097-.47.198-1.332-.154-1.546v-.464c-.1-.622.2-1.644-.155-2.01v-.618c-.102-1.495.205-3.4-.154-4.638v-.928c.36-1.186.052-3.04.154-4.483v-.619c.355-.315.056-1.284.155-1.855v-.773c.672-.003 1.39-.051 1.853.154.214.353 1.076.058 1.545.155h.464c.467.357 1.593.055 2.317.155h.772c2.112.257 5.302.257 7.414 0h.773c.672-.1 1.746.201 2.162-.155h.464c.52-.098 1.435.2 1.699-.155 3.087-.363 6.101-.798 9.114-1.236.83-.045 1.588-.162 2.162-.464 1.08-.31 2.185-.596 3.398-.773.943-.19 1.92-.346 2.626-.773z"/><path fill="#926A3A" d="M37.69 42.117c.73-.403 1.727-.54 2.626-.773-.706.427-1.683.583-2.626.773m-5.56 1.237c.602-.274 1.383-.368 2.162-.464-.574.302-1.332.419-2.162.464M4.325 68.09c.238.484.3 1.143.31 1.856-.239-.484-.301-1.143-.31-1.856m.31 2.01c4.63 11.135 10.757 20.772 22.551 24.736C15.18 91.084 9.09 81.41 4.634 70.1m23.48 24.891c9.903-4.053 13.75-14.168 17.145-24.736-2.019 7.646-5.278 15.6-10.658 20.87-1.617 1.585-4.57 3.832-6.488 3.866M44.95 61.287c.238.484.3 1.143.31 1.856-.238-.484-.3-1.143-.31-1.856m-.463-2.628c.3.68.385 1.574.463 2.474-.3-.679-.384-1.573-.463-2.474m-.309-1.7c.234.384.298.938.309 1.546-.234-.384-.298-.939-.309-1.546m-.309-1.7c.234.383.298.937.31 1.545-.235-.384-.3-.938-.31-1.546m-.618-3.247c.27.658.413 1.443.464 2.32-.27-.658-.413-1.443-.464-2.32m-1.544-7.73c.516 1.596.822 3.403 1.08 5.257-.476-1.636-.777-3.448-1.08-5.257"/><path fill="#F1A94A" d="M61.324 44.436c1.793 1.247 3.26 2.819 6.024 3.092.368.257 1.796.257 2.163 0 .977-.052 1.682-.378 2.471-.618-1.487 6.139-4.607 10.642-8.804 14.068-3.967-2.729-9.182-4.209-13.748-6.338a10.275 10.275 0 0 1 1.854-2.474c4.54.403 7.83 2.058 11.276 3.556-1.885-2.649-6.351-4.053-10.504-4.947 1.158-1.47 1.076-4.18 2.472-5.411 2.198-.325 3.532-1.516 4.788-2.783h.154a12.567 12.567 0 0 0 1.854 1.855"/><path fill="#926A3A" d="M59.47 42.58c.683.554 1.3 1.173 1.854 1.856a12.567 12.567 0 0 1-1.854-1.855"/><path fill="#F1A94A" d="M96.234 44.745c.247.577.96.687 1.081 1.392-2.206.695-3.373-1.617-3.552-2.938.179-.13.414-.204.772-.154a10.564 10.564 0 0 0 1.7 1.7"/><path fill="#926A3A" d="M94.535 43.045a10.552 10.552 0 0 1 1.7 1.7 10.564 10.564 0 0 1-1.7-1.7M78.779 52.32a10.552 10.552 0 0 1 1.7-1.7 10.589 10.589 0 0 1-1.7 1.7m-14.211 9.43c-.192.639-.45-.058-.772-.154a54.68 54.68 0 0 1 3.862-3.865 50.399 50.399 0 0 1-3.708 3.71c.087.223.241.378.464.464.008-.094.023-.183.154-.155"/><path fill="#F1A94A" d="M67.658 57.732c2.825-3.305 5.227-7.033 6.332-12.059.791.272.522 1.966.31 2.783-1.422 5.45-5.95 10.2-9.732 13.295-.131-.028-.146.06-.154.155a.781.781 0 0 1-.464-.464 50.399 50.399 0 0 0 3.708-3.71"/><path fill="#926A3A" d="M83.722 57.732c2.546-1.266 4.61-3.012 6.642-4.793-1.89 1.922-3.885 3.738-6.642 4.793m-4.016.773c.288.69 1.292.665 1.854 1.082-.81-.069-1.978-.592-1.854-1.082m4.325.773c3.228-1.616 6.996-3.509 8.032-6.803.02.018.143-.021.155 0 .501.922-2.124 3.127-3.244 4.02-1.773 1.414-3.439 2.301-4.943 2.783"/><path fill="#B6B5B1" d="M59.007 59.587c2.163 1.03 4.068 2.318 5.252 4.329-2.905-1.267-4.839-3.505-7.878-4.638 3.048.866 4.875 2.954 7.415 4.329-.774-1.546-3.066-2.909-4.789-4.02m-2.317 8.658h.309c-.108-.408-.703-.327-.773-.773.5.272.993.553 1.236 1.082-.372.063-.335-.282-.772-.155v-.154"/><path fill="#926A3A" d="M52.365 73.965a12.594 12.594 0 0 1 1.854-1.855 12.565 12.565 0 0 1-1.854 1.855m26.569 4.638a17.092 17.092 0 0 1 2.162-2.164 17.132 17.132 0 0 1-2.162 2.164"/><path fill="#B6B5B1" d="M83.722 79.53a12.609 12.609 0 0 1 1.854-1.854 12.55 12.55 0 0 1-1.854 1.855"/><path fill="#FFFFFE" d="M50.357 78.294c-1.062 1.669-1.919 3.542-1.545 6.648-1.006-.528-2.902-1.42-3.09-2.783-.39-2.834 1.207-5.625 4.635-3.865"/><path fill="#F1A94A" d="M82.641 93.909c.702.084 1.156-.08 1.39-.464.288-2.207-2.764-.906-1.39.464zm2.471-.773c.192 1.902-2.675 2.585-3.707 1.391-.637-1.583.428-3.428.31-4.483-1.092-1.039-2.842.466-3.863-.928-.813-1.11-.06-3.38 1.082-3.71 2.244-.648 2.591 1.605 4.48 1.7.72-1.388-1.054-2.687-2.163-3.247.532-.858 1.167-1.615 1.699-2.473 3.686 1.619 5.613 4.998 6.796 9.122v.463a7.874 7.874 0 0 1-2.471.773c.013-.786.068-1.613-.309-2.01-1.141-.162-1.54.418-1.7 1.237-.355.417-.054 1.492-.154 2.165z"/><path fill="#926A3A" d="M87.275 91.744a7.874 7.874 0 0 0 2.471-.773v-.463c.426.946-1.794 1.394-2.471 1.236"/><path fill="#F1A94A" d="M46.032 86.952c-1.013-.636-1.87-1.427-2.626-2.32.298-.783.57-1.593 1.236-2.01 1.393.662 1.825 2.229 1.39 4.33"/><path fill="#FFFFFE" d="M49.43 86.333c-.09.992-.528 1.636-.618 2.628-.834-.401-1.674-.797-2.162-1.545.093-.834.317-1.538.308-2.474.896.391 1.493 1.083 2.472 1.391"/><path fill="#F1A94A" d="M44.178 91.9c-1.348-1.29-2.898-4.495-1.236-6.494.608.37.937 1.02 1.545 1.391.708.838 1.48 1.61 2.317 2.32 1.206.35.747 2.532 1.236 4.174.356 1.196 1.2 1.71 1.235 2.782-1.248-.502-2.057-1.445-3.089-2.164a14.773 14.773 0 0 0-2.008-2.01"/><path fill="#926A3A" d="M44.178 91.9a14.773 14.773 0 0 1 2.008 2.009 14.773 14.773 0 0 1-2.008-2.01m.309-5.102c.837.708 1.61 1.482 2.317 2.32a19.683 19.683 0 0 1-2.317-2.32"/><path fill="#FFFFFE" d="M50.048 91.744c.661.678.993 1.686.927 3.092-1.97-.245-2.64-2.613-2.317-4.638.472.506.777 1.18 1.39 1.546"/><path fill="#B6B5B1" d="M48.658 90.198c.54.438 1.09.867 1.39 1.546-.613-.366-.918-1.04-1.39-1.546m49.43 4.484c.754.637 1.505 1.276 1.853 2.319-.583-.807-1.25-1.531-1.853-2.32m2.317 3.093c.56.418.69 1.266 1.081 1.855-.526-.453-.741-1.217-1.081-1.855"/><path fill="#B6B5B1" d="M97.933 93.909c1.653 1.489 3.043 3.242 4.016 5.41-1.206-1.884-2.41-3.77-4.016-5.255v-.155"/><path fill="#FFFFFE" d="M98.088 94.682a1.391 1.391 0 0 0-.618-.618c.025-.182.281-.131.463-.155v.155c1.606 1.484 2.81 3.371 4.016 5.256.082.124.161.25.155.464-.137-.12-.349-.167-.618-.155-.39-.589-.52-1.437-1.081-1.855-.139-.274-.373-.451-.464-.773-.348-1.043-1.1-1.682-1.853-2.32"/><path fill="#926A3A" d="M84.031 106.741c.808-.222 1.018-1.042 1.7-1.392-.486.445-1.091 1.584-1.7 1.392"/><path fill="#FFFFFE" d="M52.52 97.928c.088.324.382.442.308.928-.65-.947-2.21-.984-2.317-2.473.125.029.154.154.31.154.578.451 1.43.628 1.698 1.391"/><path fill="#B6B5B1" d="M50.82 96.537c.782.248 1.615.445 1.7 1.391-.268-.763-1.121-.94-1.7-1.391"/><path fill="#FFFFFE" d="M82.023 99.63c.427 2.457.96 4.81 1.236 7.42-.945-2.003-1.512-4.638-1.236-7.42"/><path fill="#B6B5B1" d="M46.65 102.412a39.957 39.957 0 0 1-3.708-2.01c1.254-.017 2.814.996 3.862 1.7-.15.005-.12.19-.154.31m-.464.618c-.679-.402-1.306-.857-2.008-1.236.56-.246 1.503.45 2.008.772-.507-.112-.236.308 0 .31v.154m6.179 3.711c.12-.035.305-.005.309-.155.39.229.638.598.772 1.082-.356-.313-.784-.554-1.081-.927"/><path fill="#FFFFFE" d="M46.804 102.103c2.315 1.135 4.446 2.455 5.87 4.483-.004.15-.19.12-.309.155-.125-.03-.154-.155-.31-.155.09.633.712.731.773 1.392-.315-.148-.61-.316-.927-.464-.385.107.287.412.155.773-2.072-1.637-3.812-3.606-6.333-4.793-.095-.137-.187-.276 0-.309.364.205 1.127.159.463-.155v-.154c-.236-.002-.507-.422 0-.31.475.04.695.336 1.081.464.024-.436-.436-.387-.617-.618.034-.12.004-.305.154-.31m-11.894 8.195c-.5-2.176-2.895-7.762-.463-9.122.194 3.155.283 6.415 1.39 8.658 1.039 2.825 2.592 5.136 4.788 6.802-1.43 1.249-2.57-1.593-3.553-2.319-.246-.423-.576-.763-.772-1.236a13.981 13.981 0 0 0-1.39-2.783"/><path fill="#B6B5B1" d="M34.91 110.297c.55.84 1.013 1.769 1.39 2.783-.603-.788-1.066-1.716-1.39-2.783m2.162 4.02c.982.725 2.122 3.567 3.553 2.318-2.196-1.666-3.75-3.977-4.788-6.802.927 1.63 1.659 3.42 2.78 4.793.682.834 1.705 1.168 2.163 2.164-1.571 1.255-2.936-1.414-3.708-2.474m8.65-11.13c-.186.032-.094.17 0 .308-.553.04-.565-.464-1.08-.464.15-.338.89.021 1.08.155"/><path fill="#F1A94A" d="M99.787 124.211c-4.138-2.836 2.223-5.932 4.943-7.73.656-.434 1.902-1.465 2.471-1.392 1.27.163 1.248 1.769.927 2.783-.378.858-1.306.847-2.008 1.237-2.373 1.318-4.255 3.455-6.333 5.102m-85.267-8.348c.51 3.87 3.364 5.393 5.252 7.884-1.172 1.317-2.224-.025-3.553-1.082-1.459-1.16-3.203-2.487-3.553-4.638.46-.88.894-1.785 1.854-2.164m88.047 6.647c1.99-1.46 4.062-2.84 6.334-4.02 1.943 2.22.304 3.026-1.545 4.175-2.026 1.259-4.447 3.943-5.87 4.947-.683-.565-1.554-2.2-.927-3.092a14.776 14.776 0 0 0 2.008-2.01"/><path fill="#926A3A" d="M100.559 124.52a14.759 14.759 0 0 1 2.008-2.01 14.776 14.776 0 0 1-2.008 2.01"/><path fill="#F1A94A" d="M18.073 125.447c-1.465-.172-3.519-.49-5.407-1.39-2.792-1.333-5.418-4.083-.772-4.948.975 1.165 1.44 2.728 2.78 3.71 1.18.865 3.249 1.048 3.399 2.628m84.649 5.566c-.338-.538-.518-1.234-.773-1.855 1.893-3.362 5.203-5.305 8.187-7.575 2.704 1.43.71 4.017-1.081 5.565-1.838 1.59-4.601 3.216-6.333 3.865"/><path fill="#F1A94A" d="M17.61 126.066c-1.362 1.547-4.75.107-6.488-.464-2.062-.677-4.755-1.427-5.407-3.092.413-.6 1.652-1.168 2.317-.773 2.573 1.529 5.909 3.907 9.577 4.33"/><path fill="#F1A94A" d="M8.032 127.767c-1.766-.099-2.856-1.66-2.317-3.556 1.653.749 3.376 1.77 5.561 2.319 2.116.531 4.75.14 6.488 1.391h-5.715c-1.032-.359-2.728-.052-4.017-.154"/><path fill="#926A3A" d="M109.518 127.612a14.76 14.76 0 0 1 2.009-2.01 14.778 14.778 0 0 1-2.009 2.01m-1.544 5.102a10.575 10.575 0 0 1 1.699-1.7 10.55 10.55 0 0 1-1.7 1.7"/><path fill="#F1A94A" d="M111.527 125.602c.23-.232.276-.65.617-.773 2.606 1.9-1.52 4.46-2.471 6.184a10.575 10.575 0 0 0-1.7 1.7c-1.489 1.087-2.784 2.368-4.788 2.939-.119-.955.313-2.222 0-3.556 1.973-1.633 4.537-2.674 6.333-4.484a14.778 14.778 0 0 0 2.009-2.01"/><path fill="#F1A94A" d="M113.844 126.685c.137.068.276.135.308.309-.344 4.215-2.725 6.953-5.251 9.585-1.555 1.62-3.806 4.419-6.334 3.092-.228-3.43 3.541-4.444 5.561-6.184 2.22-1.912 3.741-4.153 5.407-6.493.038-.168.307-.105.309-.31"/><path fill="#926A3A" d="M110.6 139.98c-.667.673-2.54.138-3.708.31.055-.513.463-.671.773-.928-.105.36-.514.414-.618.773 1.148-.088 2.656.185 3.553-.155"/><path fill="#F1A94A" d="M107.665 139.362c2.602-3.477 6.212-5.944 6.95-11.286 1.658 1.11.315 4.884-.463 6.648-.92 2.087-2.473 3.9-3.552 5.256-.897.34-2.405.067-3.553.155.104-.36.513-.414.618-.773M16.99 128.54h.927c-2.721 1.09-6.164 1.457-8.496 2.937-1.288-.36-1.684-1.612-2.162-2.783.929-.359 2.522-.052 3.707-.154 1.649.257 4.376.257 6.024 0m1.39 1.237c.25-.044.267.146.464.154-.902.904-2.21.585-3.244.928-1.839.61-3.024 2.378-4.943 2.783-.24-.276-.424-.606-.618-.928 1.592-1.551 3.69-2.595 6.488-2.937h1.854m104.42 11.75h-.463c.939-2.956-.051-6.062-.772-8.658 2.12.936 3.38 5.488 2.78 8.657h-1.544"/><path fill="#F1A94A" d="M127.591 141.217c-.7.072-1.267.278-2.008.31-.808-2.748-.873-6.239-2.471-8.194 3.021.48 4.169 4.175 4.48 7.884"/><path fill="#F1A94A" d="M125.738 133.796c3.388.628 3.812 4.224 4.942 7.112-.573.25-1.519.128-2.317.155-.434-2.76-1.523-5.69-2.625-7.267m-104.421 4.948c-2.486.748-5.351-.004-6.643-1.392-.07-1.462.656-2.126 1.39-2.783 2.766.376 4.64 1.644 5.253 4.175m107.201-4.02c4.599-.531 9.577.721 10.04 4.329-1.128.651-1.445-.715-2.008-1.237-1.737-1.611-4.492-2.11-7.569-2.628a.782.782 0 0 0-.463-.464"/><path fill="#926A3A" d="M24.56 137.352c-.519-.871-.602-2.179-1.699-2.474.692-.121 1.842.628 2.008 1.547-.292-.43-.565-.878-1.08-1.083.273.654.715 1.138.772 2.01"/><path fill="#F1A94A" d="M24.56 137.352c-.056-.872-.498-1.356-.772-2.01.516.205.789.654 1.081 1.083.288.536-.073.823-.154 1.39-.181-.024-.13-.281-.154-.463m1.544-105.13c.144 1.712.897 2.813 1.545 4.02.828 1.345 2.9 2.24 3.09 3.71-4.314 1.75-10.501-4.866-5.87-7.73.455-.213.625-.714 1.08-.927.09.272-.186.908.155.927m46.65 3.865c.268.763.348 1.714.309 2.783v2.165c-.029 1.723-.392 3.112-.773 4.483-1.483.042-2.612-.271-3.707-.618-2.735-1.488-3.867-4.58-5.406-7.266v-.155c-.39-.715.102-1.29.154-2.01.477-2.1.967-4.186.927-6.802v-.928c1.44.7 1.692 2.168 2.935 3.247 1.984 1.72 5.079 2.206 5.56 5.101"/><path fill="#FFFFFE" d="M56.381 59.278c-2.77-1.505-6.733-1.816-8.804-4.02 3.769 1.484 7.914 2.59 11.43 4.33 1.723 1.11 4.015 2.473 4.789 4.019-2.54-1.375-4.367-3.463-7.415-4.33"/><path fill="#F1A94A" d="M17.61 116.017c.346 3.054 2.295 4.505 3.552 6.648-2.381-.433-6.8-5.689-5.715-8.658.247-.678 1.669-2.04 2.471-2.473.015.787-.323 1.222-.309 2.01-.256.469-.256 2.004 0 2.473m102.877 16.233c1.609 2.257 1.624 6.333.463 9.122-.753.134-1.024-.212-1.545-.31.026-2.212 1.359-4.395.927-7.575.094-.37-.194-1.122.155-1.237"/><path fill="#FFFFFE" d="M161.111 1.457c.338.347-.675.727-1.236 1.082-16.55 10.458-33.151 20.913-49.893 31.538-.412.262-2.928 2.026-3.399 1.547-1.036-1.056 2.084-2.326 2.318-2.474a4458.09 4458.09 0 0 0 45.722-29.22c2.059-1.334 3.4-2.22 6.333-2.473h.155M61.633 15.06c-.178 2.138.738 4.001.772 5.412-1.1.002-1.152-1.55-1.39-2.474-1.893-7.352 1.453-15.063 8.96-14.996-4.638 1.594-8.141 4.323-8.342 10.358-.256.216-.256 1.484 0 1.7m23.634 11.596c-.82 1.498-2.38 2.255-3.399 3.556-.232-1.488-1.672-3.558-1.39-4.639.524-2.001 3.116 1.325 4.789 1.083m-36.3 39.887h2.78c1.72.081 3.358.247 4.48.928.069.446.664.365.772.773h-.31c-2.141-.474-5.165-1.4-7.568-.619-.345-.066-.062-.762-.154-1.082"/><path fill="#FFFFFE" d="M56.381 68.863c-3.21 1.734-6.044 3.845-6.488 8.349h-2.008c-.763-5.654 3.08-10.306 8.496-8.349m27.341 10.668c-1.438 1.55-2.846 3.129-3.862 5.102-4.04-.922-5.19 7.622 0 6.338.168 1.25-.373 1.791-.309 2.938-7.491 1.26-3.977-7.416-2.008-11.132 1.544-2.913 3.885-5.22 5.252-6.493 1.456-.18 3.914-.026 2.78 1.392-.682.553-1.3 1.172-1.853 1.855m14.211 13.296c-.753.665-1.851.376-2.78.464-5.712.539-10.39 2.793-13.593 5.41.067-.705-.157-1.702.154-2.164 2.86.08 3.68-1.883 4.788-3.556 2.545-.49 6.347-2.277 9.578-1.7.74.131 1.795.502 1.853 1.546"/><path fill="#F1A94A" d="M45.568 37.17c.245-1.465 1.197-2.348 1.236-4.33.104-5.252-3.48-9.368-8.187-10.203 4.57-5.072 12.413-1.319 13.13 5.102.551 4.929-2.112 8.292-6.179 9.43M29.04 35.78c-.692-1.078-1.733-2.524-1.39-3.866.227-.889 4.78-3.824 6.179-3.865 1.846-.054 2.852 1.638 4.016 2.165a14.756 14.756 0 0 0 2.008 2.01c.977 1.289 1.893 2.64 2.163 4.637-2.082.739-8.428 4.25-10.195 1.701a28.393 28.393 0 0 0-2.78-2.783m-9.732 4.638c1.68-.563 4.093-.463 5.87 0-1.735.326-3.594.527-5.561.619-.47-.097-1.331.198-1.545-.155.43-.136.94-.193 1.236-.464M89.9 43.817c.367 2.063 2.083 4.117 4.325 3.866.816-.092.954-.878 1.854-.619.379.579-1 1.105-1.545 1.855-.437.602-.409 1.331-.927 1.701-3.404-.559-6.58-2.83-5.715-6.648.838.118 1.197-.245 2.008-.155"/><path fill="#F1A94A" d="M80.478 50.62c.03-.64.816-.523.927-1.082-1.403.76-2.546 1.781-3.862 2.628.927-4.38 3.84-6.773 8.342-7.576-.4 3.926 2.243 6.089 4.943 7.421-2.985 2.064-5.779 4.318-10.04 5.102h-1.7c-1.03.053-1.321-.636-1.854-1.082-.15-1.903.859-2.645 1.545-3.71a10.589 10.589 0 0 0 1.7-1.7"/><path fill="#F1A94A" d="M90.364 52.94c.338-.73.907-.863 1.7-.465-1.037 3.294-4.805 5.187-8.033 6.803-.517.35-1.706.707-2.471.31-.562-.418-1.566-.393-1.854-1.083 1.579-.018 2.707-.486 4.016-.773 2.757-1.055 4.752-2.871 6.642-4.793M54.22 72.11c4.068-3.876 13.908-2.218 19.463-.308 3.335 1.146 6.685 2.042 8.496 4.02-.537.03-.587.546-1.082.618a17.092 17.092 0 0 0-2.162 2.164c-2.518 3.356-4.054 7.693-4.944 12.678-.902.281-1.64.729-2.934.618-.724.1-1.85-.202-2.317.155-7.913.996-15.083-1.242-17.455-6.803 1.843.938 3.798 1.764 6.333 2.01-2.117-.98-5.014-2.067-6.333-3.71-1.818-2.265.6-4.306.617-7.885.793-.65 2.461-.423 3.862-.464h2.78c2.924-.195 5.038.421 7.724.464-1.593-1.601-4.4-1.987-7.723-1.855-.571.098-1.539-.2-1.854.154-1.234-.095-4.354.565-4.325 0 .682-.554 1.3-1.172 1.854-1.855M84.03 106.74c-.137-2.564-1.795-4.828-.927-7.576.285-.9 2.85-2.38 4.325-3.092 4.315-2.084 12.627-2.538 12.358 3.71-6.494.046-10.445 2.636-14.057 5.566-.68.35-.89 1.17-1.699 1.392m-57.308 1.237c.404-3.615 2.358-5.68 5.252-6.803-.233 7.397 2.447 11.878 5.406 16.079-.586.392-.922 1.035-2.007.927h-2.318c-4.27-.364-5.824-3.446-6.333-7.575v-2.628m79.243 2.319h.308c.626.92.388 2.704.464 4.174-3.349 1.854-6.371 4.033-9.423 6.184-1.173-.784-2.28-1.635-3.861-2.01.589-4.93 5.159-7.2 10.04-8.348h2.472m11.894 20.253c.207 4.227-1.34 6.699-2.78 9.276-1.305-.12-2.161.208-3.4.154 2.016-2.879 4.05-5.739 4.48-10.203.982-.158 1.183.466 1.7.773m-98.551.618c-.907 3.009-4.964 2.865-6.025 5.72-1.026-.107-1.419-.847-1.853-1.546 1.179-2.66 4.287-4.947 7.878-4.174"/><path fill="#F1A94A" d="M119.559 136.115c-.239 1.565-.802 2.805-1.236 4.174-.8-.074-1.917.167-2.471-.154 1.161-2.65 2.63-4.994 2.934-8.503.662.523.707 1.663.773 2.783v1.7m-95.462 1.7c-.36.568-1.246.609-2.008.774-.497-2.543-2.94-3.138-4.789-4.329 2.577-2.108 5.99 1.025 6.797 3.556m112.917 1.7c-1.478.738-3.545.884-5.56 1.083-.39-1.724-.956-3.27-1.855-4.484 2.806.18 6.1 1.213 7.415 3.401"/><path fill="#B6B5B1" d="M48.967 66.544c.57-.257 2.21-.257 2.78 0h-2.78"/></g></svg>